# xmcd
#
# Track frame offsets: 
#        150
#        14233
#        34384
#        50470
#        81539
#        94740
#        110036
#        126890
#        144562
#        162648
#        175487
#        197869
#        218052
#        240731
#        262186
#
# Disc length: 3684 seconds
#
# Revision: 0
# Processed by: cddbd v1.5.2PL0 Copyright (c) Steve Scherf et al.
# Submitted via: ExactAudioCopy v0.99pb5
#
DISCID=f00e620f
DTITLE=James Kinds - Love You From The Top
DYEAR=2010
DGENRE=Blues
TTITLE0=Love You From The Top
TTITLE1=If You Need It
TTITLE2=I Got A Woman
TTITLE3=Mason Dixon Line Blues
TTITLE4=Crack Headed Woman
TTITLE5=Oo Wee Baby
TTITLE6=Peggy Sue
TTITLE7=Take A Look At Yourself
TTITLE8=Katie
TTITLE9=Body Slam
TTITLE10=I Didn't Go Home
TTITLE11=Johnny Mae
TTITLE12=I Can't Take It
TTITLE13=My Mama Told Me
TTITLE14=High Heel Shoes
EXTD=
EXTT0=
EXTT1=
EXTT2=
EXTT3=
EXTT4=
EXTT5=
EXTT6=
EXTT7=
EXTT8=
EXTT9=
EXTT10=
EXTT11=
EXTT12=
EXTT13=
EXTT14=
PLAYORDER=
